<svg width="22" height="19" viewBox="0 0 22 19" fill="none" xmlns="http://www.w3.org/2000/svg">
<path d="M2.18059 10.6242C2.08595 10.8802 1.8943 11.0896 1.64635 11.2078C1.3984 11.326 1.11369 11.3438 0.852733 11.2573C0.591773 11.1708 0.375122 10.987 0.248813 10.7447C0.122505 10.5025 0.0964935 10.221 0.176307 9.96011C0.155165 10.023 0.176307 9.95801 0.176307 9.95801C0.214006 9.8427 0.25776 9.72943 0.307389 9.61864C0.391958 9.41963 0.516697 9.1452 0.68795 8.82049C1.03468 8.17107 1.58015 7.30588 2.37933 6.44069C4.00094 4.69146 6.65007 2.95898 10.6925 2.95898C14.737 2.95898 17.3861 4.69146 19.0035 6.44069C19.867 7.37901 20.5672 8.45294 21.0754 9.61864C21.1177 9.7171 21.1494 9.79671 21.1706 9.85536C21.179 9.87212 21.2002 9.98106 21.2213 10.0858C21.2403 10.1822 21.2572 10.2743 21.2636 10.2911C21.2636 10.2911 21.4412 10.9887 20.5405 11.2841C20.2753 11.3718 19.9858 11.3519 19.7353 11.2286C19.4849 11.1053 19.294 10.8888 19.2043 10.6263V10.62L19.1895 10.5865C19.0833 10.3174 18.9619 10.0544 18.8259 9.7988C18.4506 9.09612 17.9867 8.44356 17.4453 7.85684C16.1556 6.46374 14.0477 5.05387 10.6925 5.05387C7.33719 5.05387 5.22931 6.46374 3.93963 7.85684C3.24138 8.61533 2.67356 9.48228 2.25882 10.4231C2.23663 10.4771 2.21548 10.5316 2.19539 10.5865L2.18059 10.6242Z" fill="black"/>
<path d="M10.6923 7.14893C9.57083 7.14893 8.49532 7.59035 7.70234 8.37608C6.90936 9.16181 6.46387 10.2275 6.46387 11.3387C6.46387 12.4499 6.90936 13.5156 7.70234 14.3013C8.49532 15.087 9.57083 15.5284 10.6923 15.5284C11.8137 15.5284 12.8892 15.087 13.6822 14.3013C14.4752 13.5156 14.9207 12.4499 14.9207 11.3387C14.9207 10.2275 14.4752 9.16181 13.6822 8.37608C12.8892 7.59035 11.8137 7.14893 10.6923 7.14893ZM8.57807 11.3387C8.57807 10.7831 8.80082 10.2503 9.19731 9.85738C9.5938 9.46452 10.1315 9.24381 10.6923 9.24381C11.253 9.24381 11.7907 9.46452 12.1872 9.85738C12.5837 10.2503 12.8065 10.7831 12.8065 11.3387C12.8065 11.8943 12.5837 12.4271 12.1872 12.82C11.7907 13.2129 11.253 13.4336 10.6923 13.4336C10.1315 13.4336 9.5938 13.2129 9.19731 12.82C8.80082 12.4271 8.57807 11.8943 8.57807 11.3387Z" fill="black"/>
<line x1="2.41364" y1="1.95961" x2="18.9596" y2="17.5864" stroke="white" stroke-width="2" stroke-linecap="round"/>
<line x1="1.41364" y1="1.95961" x2="17.9596" y2="17.5864" stroke="black" stroke-width="2" stroke-linecap="round"/>
</svg>
